PathFileType	4	(X/Y/Z)	Patient4_TMGait_0pt8_01_right_47.trc.trc
DataRate	CameraRate	NumFrames	NumMarkers	Units	OrigDataRate	OrigDataStartFrame	OrigNumFrames
88.607594936709	88.607594936709	4	33	mm	88.607594936709	124	       141
Frame#	Time	Sacral			L.Shoulder			Chest			R.Shoulder			Neck			R.ASIS			L.ASIS			R.Thigh.Superior			R.Thigh.Lateral			R.Thigh.Inferior			R.Patella			L.Thigh.Superior			L.Thigh.Lateral			L.Thigh.Inferior			L.Patella			L.Shank.Superior			L.Shank.Lateral			L.Shank.Inferior			R.Shank.Superior			R.Shank.Lateral			R.Shank.Inferior			R.Heel			R.Midfoot.Superior			R.Midfoot.Lateral			R.Toe			L.Heel			L.Midfoot.Lateral			L.Midfoot.Superior			L.Toe			L.Elbow			L.Wrist			R.Elbow			R.Wrist			
		X1	Y1	Z1	X2	Y2	Z2	X3	Y3	Z3	X4	Y4	Z4	X5	Y5	Z5	X6	Y6	Z6	X7	Y7	Z7	X8	Y8	Z8	X9	Y9	Z9	X10	Y10	Z10	X11	Y11	Z11	X12	Y12	Z12	X13	Y13	Z13	X14	Y14	Z14	X15	Y15	Z15	X16	Y16	Z16	X17	Y17	Z17	X18	Y18	Z18	X19	Y19	Z19	X20	Y20	Z20	X21	Y21	Z21	X22	Y22	Z22	X23	Y23	Z23	X24	Y24	Z24	X25	Y25	Z25	X26	Y26	Z26	X27	Y27	Z27	X28	Y28	Z28	X29	Y29	Z29	X30	Y30	Z30	X31	Y31	Z31	X32	Y32	Z32	X33	Y33	Z33	

124	54.288142857143	898.302800242335	986.647029643836	460.941404528258	1079.145933130356	1422.384017243373	296.300824834122	1174.867047128167	1348.762290788885	459.610274366646	1081.175632520211	1415.196783062308	631.769164131519	1052.537506612398	1476.119038461462	451.514734834211	1125.446610713951	920.288497525307	579.399088482343	1112.961383963928	947.881229079002	305.382349750202	1199.795962984040	750.207244691586	550.587132200623	1156.551908417357	629.646614122361	630.187316329962	1245.527238092442	593.423393754733	550.324087055187	1278.769702436179	513.371135808189	567.939334857138	1100.398933147856	717.643838288631	325.981370959424	971.183783581507	632.610677925367	268.831616019947	1026.920994619189	532.725082664375	328.068983888614	1007.695740059559	465.747414542318	337.202380352590	967.577001893504	404.155478800462	331.374961119680	854.095071459176	309.226705498901	286.665622898191	887.143469297516	189.960471871191	356.678878259517	1267.494070721524	423.710721308937	581.988666574850	1218.283353057627	308.689557140137	645.364163853548	1292.938045650563	225.733385949936	597.866149246437	1208.459950444668	40.123194029825	569.890811630818	1366.681499036843	115.750568202865	616.276754979100	1286.931406568714	44.105034268052	649.614040641830	1488.785588686455	83.145602847157	653.749278942946	740.295934664520	45.514600790813	406.845397067509	811.447857862309	37.810651517609	324.877669558948	897.831722228251	96.629203959487	347.549704540608	1022.727726994309	40.252129846306	315.565627195117	1160.995031068502	1105.266615401178	133.948763076050	1413.566820264874	1116.402706741512	165.283016787408	912.366029603094	1116.532882841953	732.127190882396	855.852410584398	863.702840921009	753.685324368676	
125	54.299428571429	900.426825631119	985.193792461384	464.531216788588	1079.229939756996	1420.991324439002	298.626074301401	1176.015807571247	1347.941766932324	461.631950927571	1082.939394987928	1414.315279482026	634.225447591229	1053.399390052554	1474.914166982479	453.985078722251	1128.211726347599	918.793770331822	581.409979008001	1114.537506368955	946.676369008359	307.213793032149	1202.548358085462	748.536502139891	551.962638288388	1157.956162161522	627.964798240055	630.725815719991	1246.881880582591	591.805415402354	551.057738007145	1278.883860469430	510.863729686653	568.341808585260	1101.536204974195	716.358063406092	327.484948274230	971.618032346656	631.883163806242	270.906639098346	1027.375396518374	531.371603523020	329.360114881418	1007.696493253055	463.695895013219	338.235892908526	965.897848439906	402.703905122729	332.379835702856	850.132331536303	310.442113125154	287.662246764423	880.747256235684	190.043953642597	356.772804848646	1266.854795132922	420.727362427271	582.363251101042	1216.015757563868	306.249449566801	645.205594908412	1289.224030455669	222.439332360212	597.516593428704	1200.936190652267	40.168614135707	568.950670652099	1360.894819929236	111.353986444869	615.597926318128	1279.325776039912	42.024265592146	648.903938419843	1482.257552419369	75.389032845133	653.005681834552	731.416970058180	47.677815822552	406.424662077406	802.583964919197	38.640865842688	324.663325877912	889.536421339520	96.881247901332	347.129068010047	1013.765778780206	39.778169900389	315.438798749166	1159.068852603931	1103.305424252237	136.009885817535	1410.991232320034	1120.701253428352	167.272369197150	911.872117719345	1117.712631973340	734.434550002244	850.259619306141	866.060397330295	755.385983979675	
126	54.310714285714	902.526042303620	984.145114012626	468.132844900202	1079.493161313891	1419.885045021667	300.998088547952	1177.280004895202	1347.442140319892	463.760331679763	1084.802121816874	1413.756782252181	636.768333774504	1054.400287896050	1474.083389618147	456.513529009419	1130.892121837610	917.764988284103	583.662952910704	1116.206561926766	945.875335662984	309.133955595143	1205.391806996148	747.482556267013	553.684852026357	1159.520717462060	626.883187086922	631.526446248276	1248.592190906485	590.865621837429	552.219833299142	1279.344712551575	508.836660400567	569.119965327851	1103.026467551661	715.373745436138	329.164827536981	972.595498751588	631.239847816347	273.140861555143	1028.646695543951	530.147960485898	330.704735933746	1008.600353408780	461.647792328770	339.161509826850	964.894118441343	401.332200045644	333.344487226519	846.697366748459	312.039543955000	288.718501529719	874.727241243001	190.433842685369	356.757712009733	1266.352130460172	418.225433259664	582.950309272034	1213.738078537813	304.432713363482	645.448974901338	1285.051475664239	219.535525417964	597.351877822410	1192.348615690788	40.589234840128	568.333031891045	1354.162611885102	107.358933540177	615.013039660882	1270.773496734009	40.304128600934	648.415591428447	1474.846203689319	67.902145779685	652.204727812635	722.644020316133	50.535737858643	405.941717276639	793.750609107976	39.771113299101	324.411366483800	881.485074970666	97.214309769392	346.547348727316	1004.787320528599	39.345917843032	315.323609139292	1156.460762358094	1101.173208303361	138.399438751253	1407.849373070328	1123.630707971167	169.183671389467	912.661005140311	1118.282962864790	736.765064686717	846.486338450322	867.755299438453	757.251242701430	
127	54.322000000000	904.557159778324	983.566135610507	471.690995882961	1079.966246449843	1419.135777134979	303.406624344646	1178.660344643584	1347.299722332252	465.983057037286	1086.755401461258	1413.564922003170	639.371011141689	1055.543581262337	1473.676129153520	459.075480465202	1133.441084254736	917.257450803412	586.168468800428	1117.894351526249	945.577408916359	311.129415649432	1208.216261203810	747.049803221093	555.791035553097	1161.167572169627	626.411352265882	632.673410958922	1250.505168539464	590.540099514072	553.847582248310	1280.012157532712	507.318056917812	570.329293045726	1104.859135948682	714.736813738759	331.038620936558	974.177585978048	630.676908785467	275.494624936815	1030.839433087995	529.078270740227	332.075476787552	1010.517664085120	459.616316001150	339.913101375692	964.664017273339	400.064427756179	334.214904323391	843.897917238419	314.071523720422	289.810284215774	869.188242436106	191.199337734773	356.606753441226	1265.912625854677	416.255528130221	583.793382631972	1211.490004294951	303.245770602230	646.134501139784	1280.550367290445	217.114902148752	597.392673507225	1183.158795676275	41.218202232370	568.045224960594	1346.750375518170	104.001132886650	614.567947072190	1261.697586179303	38.992366337039	648.170932956291	1466.858243626538	61.255218117148	651.457654787110	714.065426310456	54.240597671146	405.405590717308	784.990949792703	41.305053783546	324.130511135999	873.758432894749	97.649745455726	345.788610241957	995.798017307976	38.975744076397	315.231995237117	1153.162615872056	1098.942767041428	141.158483800742	1404.213684776765	1125.163045349316	171.026969269242	914.632744087249	1118.311855078564	739.128602211623	844.587770512518	868.776472080508	759.320342602112	
